<svg width="42" height="42" viewBox="0 0 42 42" fill="none" xmlns="http://www.w3.org/2000/svg">
  <path fill-rule="evenodd" clip-rule="evenodd"
        d="M20.7429 41.4857C32.1988 41.4857 41.4857 32.1988 41.4857 20.7429C41.4857 18.4773 41.1225 16.2966 40.4512 14.2558L22.8249 31.4052C22.4161 31.803 21.9305 32.0019 21.3683 32.0019C20.8062 32.0019 20.3206 31.803 19.9118 31.4052L8.92348 20.7142C8.51463 20.3164 8.31016 19.8439 8.31016 19.297C8.31016 18.75 8.51463 18.2776 8.92348 17.8798L11.7344 15.1448C12.1433 14.7471 12.6288 14.5482 13.191 14.5482C13.7532 14.5482 14.2387 14.7471 14.6476 15.1448L21.3683 21.6838L36.3633 7.09443C32.5611 2.74637 26.9727 0 20.7429 0C9.28689 0 0 9.28689 0 20.7429C0 32.1988 9.28689 41.4857 20.7429 41.4857Z"
        fill="#11ABEC"/>
</svg>
